<svg width="15" height="15" viewBox="0 0 15 15" fill="none" xmlns="http://www.w3.org/2000/svg">
<rect width="15" height="15" fill="url(#paint0_linear_571_5451)" fill-opacity="0.05"/>
<path fill-rule="evenodd" clip-rule="evenodd" d="M2.646 3.17164C2.41974 3.39453 2.34375 3.58969 2.34375 3.75C2.34375 3.91031 2.41974 4.10547 2.646 4.32836C2.87391 4.55288 3.22775 4.77665 3.70281 4.97459C4.65088 5.36962 5.99312 5.625 7.5 5.625C9.00688 5.625 10.3491 5.36962 11.2972 4.97459C11.7722 4.77665 12.1261 4.55288 12.354 4.32836C12.5803 4.10547 12.6562 3.91031 12.6562 3.75C12.6562 3.58969 12.5803 3.39453 12.354 3.17164C12.1261 2.94712 11.7722 2.72335 11.2972 2.52541C10.3491 2.13038 9.00688 1.875 7.5 1.875C5.99312 1.875 4.65088 2.13038 3.70281 2.52541C3.22775 2.72335 2.87391 2.94712 2.646 3.17164ZM3.34224 1.66003C4.43001 1.20678 5.90028 0.9375 7.5 0.9375C9.09972 0.9375 10.57 1.20678 11.6578 1.66003C12.2006 1.88622 12.6706 2.16749 13.0119 2.50377C13.3549 2.84169 13.5938 3.2631 13.5938 3.75C13.5938 4.2369 13.3549 4.65831 13.0119 4.99623C12.6706 5.33251 12.2006 5.61378 11.6578 5.83997C10.57 6.29322 9.09972 6.5625 7.5 6.5625C5.90028 6.5625 4.43001 6.29322 3.34224 5.83997C2.79937 5.61378 2.32945 5.33251 1.98808 4.99623C1.64506 4.65831 1.40625 4.2369 1.40625 3.75C1.40625 3.2631 1.64506 2.84169 1.98808 2.50377C2.32945 2.16749 2.79937 1.88622 3.34224 1.66003Z" fill="white"/>
<path fill-rule="evenodd" clip-rule="evenodd" d="M1.875 5.80078C2.13388 5.80078 2.34375 6.01065 2.34375 6.26953C2.34375 6.42975 2.41974 6.62488 2.64611 6.8478C2.87411 7.07234 3.22807 7.29613 3.70322 7.49408C4.65146 7.88914 5.99371 8.14453 7.5 8.14453C9.00629 8.14453 10.3485 7.88914 11.2968 7.49408C11.7719 7.29613 12.1259 7.07234 12.3539 6.8478C12.5803 6.62488 12.6562 6.42975 12.6562 6.26953C12.6562 6.01065 12.8661 5.80078 13.125 5.80078C13.3839 5.80078 13.5938 6.01065 13.5938 6.26953C13.5938 6.75648 13.3548 7.1779 13.0117 7.51578C12.6703 7.85204 12.2002 8.13329 11.6573 8.35948C10.5694 8.81272 9.09918 9.08203 7.5 9.08203C5.90082 9.08203 4.43057 8.81272 3.34268 8.35948C2.79976 8.13329 2.32974 7.85204 1.98829 7.51578C1.6452 7.1779 1.40625 6.75648 1.40625 6.26953C1.40625 6.01065 1.61612 5.80078 1.875 5.80078Z" fill="white"/>
<path fill-rule="evenodd" clip-rule="evenodd" d="M1.875 8.32031C2.13388 8.32031 2.34375 8.53018 2.34375 8.78906C2.34375 8.94928 2.41974 9.14441 2.64611 9.36734C2.87411 9.59187 3.22807 9.81566 3.70322 10.0136C4.65146 10.4087 5.99371 10.6641 7.5 10.6641C9.00629 10.6641 10.3485 10.4087 11.2968 10.0136C11.7719 9.81566 12.1259 9.59187 12.3539 9.36734C12.5803 9.14441 12.6562 8.94928 12.6562 8.78906C12.6562 8.53018 12.8661 8.32031 13.125 8.32031C13.3839 8.32031 13.5938 8.53018 13.5938 8.78906C13.5938 9.27602 13.3548 9.69744 13.0117 10.0353C12.6703 10.3716 12.2002 10.6528 11.6573 10.879C10.5694 11.3322 9.09918 11.6016 7.5 11.6016C5.90082 11.6016 4.43057 11.3322 3.34268 10.879C2.79976 10.6528 2.32974 10.3716 1.98829 10.0353C1.6452 9.69744 1.40625 9.27602 1.40625 8.78906C1.40625 8.53018 1.61612 8.32031 1.875 8.32031Z" fill="white"/>
<path fill-rule="evenodd" clip-rule="evenodd" d="M1.875 3.25897C2.13388 3.25897 2.34375 3.46884 2.34375 3.72772V11.2723C2.34375 11.4277 2.41817 11.6195 2.64451 11.8403C2.87235 12.0625 3.22633 12.2843 3.70176 12.4805C4.65044 12.8719 5.99322 13.125 7.5 13.125C9.00678 13.125 10.3496 12.8719 11.2982 12.4805C11.7737 12.2843 12.1277 12.0625 12.3555 11.8403C12.5818 11.6195 12.6562 11.4277 12.6562 11.2723V3.72772C12.6562 3.46884 12.8661 3.25897 13.125 3.25897C13.3839 3.25897 13.5938 3.46884 13.5938 3.72772V11.2723C13.5938 11.7578 13.3532 12.1767 13.0101 12.5114C12.6685 12.8446 12.1985 13.1231 11.6559 13.3471C10.5684 13.7958 9.09869 14.0625 7.5 14.0625C5.90131 14.0625 4.43159 13.7958 3.34414 13.3471C2.8015 13.1231 2.33151 12.8446 1.98989 12.5114C1.64677 12.1767 1.40625 11.7578 1.40625 11.2723V3.72772C1.40625 3.46884 1.61612 3.25897 1.875 3.25897Z" fill="white"/>
<defs>
<linearGradient id="paint0_linear_571_5451" x1="7.5" y1="0" x2="7.5" y2="15" gradientUnits="userSpaceOnUse">
<stop stop-color="#6966FF"/>
<stop offset="1" stop-color="#9D68F3"/>
</linearGradient>
</defs>
</svg>
