<svg width="15" height="15" viewBox="0 0 15 15" fill="none" xmlns="http://www.w3.org/2000/svg">
<path fill-rule="evenodd" clip-rule="evenodd" d="M5.7227 1.11981C5.81146 1.00483 5.9485 0.9375 6.09375 0.9375C7.24637 0.9375 8.77104 1.74453 9.98602 3.15055C11.2209 4.57963 12.1875 6.6795 12.1875 9.375C12.1875 10.6182 11.6936 11.8105 10.8146 12.6896C9.93549 13.5686 8.7432 14.0625 7.5 14.0625C6.2568 14.0625 5.06451 13.5686 4.18544 12.6896C3.30636 11.8105 2.8125 10.6182 2.8125 9.375C2.8125 8.58833 3.075 7.86837 3.42024 7.20489C3.68183 6.70217 4.00802 6.20226 4.3216 5.72168C4.41634 5.5765 4.50992 5.43308 4.60022 5.29188C5.40612 4.03174 5.99455 2.87877 5.64027 1.52492C5.6035 1.3844 5.63394 1.23478 5.7227 1.11981ZM6.66618 1.96041C6.8028 3.44344 6.0917 4.6998 5.39002 5.79698C5.28863 5.95552 5.18781 6.11009 5.08876 6.26196C4.78094 6.73391 4.49012 7.1798 4.25188 7.63764C3.9416 8.23393 3.75 8.79936 3.75 9.375C3.75 10.3696 4.14509 11.3234 4.84835 12.0266C5.55161 12.7299 6.50544 13.125 7.5 13.125C8.49456 13.125 9.44839 12.7299 10.1517 12.0266C10.8549 11.3234 11.25 10.3696 11.25 9.375C11.25 6.91425 10.3709 5.02974 9.27667 3.76352C8.40408 2.75372 7.42492 2.16723 6.66618 1.96041Z" fill="white"/>
<path fill-rule="evenodd" clip-rule="evenodd" d="M6.20136 6.73241C6.29041 6.62479 6.42282 6.5625 6.5625 6.5625C6.99719 6.5625 7.41849 6.74174 7.78543 6.99234C8.15677 7.24596 8.50529 7.59454 8.80401 7.98943C9.39488 8.77053 9.84375 9.80495 9.84375 10.7812C9.84375 11.7127 9.58409 12.425 9.13086 12.9079C8.67761 13.3909 8.07779 13.5938 7.5 13.5938C6.92221 13.5938 6.32239 13.3909 5.86914 12.9079C5.41591 12.425 5.15625 11.7127 5.15625 10.7812C5.15625 9.8385 5.48189 9.132 5.74224 8.56715C5.74682 8.55723 5.75137 8.54735 5.7559 8.53752C6.02895 7.94481 6.18697 7.56489 6.10203 7.11896C6.07589 6.98174 6.11231 6.84002 6.20136 6.73241ZM7.04428 7.63861C6.98614 8.10839 6.79482 8.52331 6.62371 8.89437C6.61825 8.90622 6.6128 8.91803 6.60739 8.92979C6.34251 9.50475 6.09375 10.0498 6.09375 10.7812C6.09375 11.5405 6.30284 12.0001 6.55274 12.2664C6.80261 12.5326 7.14029 12.6562 7.5 12.6562C7.85971 12.6562 8.19739 12.5326 8.44726 12.2664C8.69716 12.0001 8.90625 11.5405 8.90625 10.7812C8.90625 10.0668 8.5641 9.22625 8.05634 8.55502C7.80575 8.22376 7.52805 7.95185 7.25669 7.76651C7.18306 7.71623 7.11213 7.6738 7.04428 7.63861Z" fill="white"/>
</svg>
