<svg width="15" height="15" viewBox="0 0 15 15" fill="none" xmlns="http://www.w3.org/2000/svg">
<path fill-rule="evenodd" clip-rule="evenodd" d="M2.34375 9.84375V13.5938H2.8125V9.84375H2.34375ZM1.40625 9.60938C1.40625 9.22105 1.72105 8.90625 2.10938 8.90625H3.04688C3.4352 8.90625 3.75 9.22105 3.75 9.60938V13.8281C3.75 14.2165 3.4352 14.5312 3.04688 14.5312H2.10938C1.72105 14.5312 1.40625 14.2165 1.40625 13.8281V9.60938Z" fill="white"/>
<path fill-rule="evenodd" clip-rule="evenodd" d="M8.90625 7.03125V13.5938H9.375V7.03125H8.90625ZM7.96875 6.79688C7.96875 6.40855 8.28355 6.09375 8.67188 6.09375H9.60938C9.9977 6.09375 10.3125 6.40855 10.3125 6.79688V13.8281C10.3125 14.2164 9.9977 14.5312 9.60938 14.5312H8.67188C8.28355 14.5312 7.96875 14.2164 7.96875 13.8281V6.79688Z" fill="white"/>
<path fill-rule="evenodd" clip-rule="evenodd" d="M12.1875 3.75V13.5938H12.6562V3.75H12.1875ZM11.25 3.51562C11.25 3.1273 11.5648 2.8125 11.9531 2.8125H12.8906C13.279 2.8125 13.5938 3.1273 13.5938 3.51562V13.8281C13.5938 14.2164 13.279 14.5312 12.8906 14.5312H11.9531C11.5648 14.5312 11.25 14.2164 11.25 13.8281V3.51562Z" fill="white"/>
<path fill-rule="evenodd" clip-rule="evenodd" d="M5.625 1.40625V13.5938H6.09375V1.40625H5.625ZM4.6875 1.17188C4.6875 0.78355 5.0023 0.46875 5.39062 0.46875H6.32812C6.71645 0.46875 7.03125 0.78355 7.03125 1.17188V13.8281C7.03125 14.2164 6.71645 14.5312 6.32812 14.5312H5.39062C5.0023 14.5312 4.6875 14.2164 4.6875 13.8281V1.17188Z" fill="white"/>
</svg>
