<svg width="72" height="75" viewBox="0 0 72 75" fill="none" xmlns="http://www.w3.org/2000/svg">
<path d="M20.7337 22.6772H36.6206C37.4198 22.7146 39.3192 22.4301 40.5235 20.9929C43.6333 17.3169 50.752 8.91518 50.7048 9.09072C50.6552 9.27507 50.9149 28.0789 51.0094 34.8039C51.0094 36.7801 52.224 38.5467 52.8313 39.183C56.518 43.3536 64.5995 52.5195 64.3382 52.4327C64.0001 52.3204 32.9025 52.4327 32.9025 52.4327C31.0096 52.4327 29.5169 53.6304 29.0072 54.2292C29.0072 54.2292 12.8467 74.5702 13.072 74.4405C13.2653 74.3293 49.2401 74.5399 50.1414 74.5399C51.0428 74.5399 52.9357 73.7201 53.747 72.7428L70.5918 51.9272C71.0612 51.3845 72 49.8277 72 47.9413V26.0457C72 24.339 71.2282 23.173 70.8423 22.8033L52.7974 2.01677C51.4067 0.399886 49.7262 -0.00144245 49.0598 3.89059e-06C49.0598 3.89059e-06 0.227296 0.23754 0.0019501 0.107926C-0.182391 0.00189788 12.7526 15.1723 17.4662 20.6967C18.0296 21.3569 19.4718 22.6772 20.7337 22.6772Z" fill="#0B1F3B"/>
<path d="M1.05212 31.8667C3.72412 28.5416 10.8407 19.6943 10.8407 19.786C10.8407 19.8989 25.4554 36.793 25.828 37.4347C26.2006 38.0765 26.2855 42.1456 25.828 42.9337C25.3705 43.7217 0.176849 74.5439 0.0544272 74.9963C-0.067995 75.4486 0.0544272 34.8016 0.0544272 34.1241C0.0544272 33.4467 0.396956 32.6802 1.05212 31.8667Z" fill="#0B1F3B"/>
</svg>
