<svg width="14" height="12" viewBox="0 0 14 12" fill="none" xmlns="http://www.w3.org/2000/svg">
<path fill-rule="evenodd" clip-rule="evenodd" d="M0.000374444 3.52017C0.0213656 1.61892 1.64788 0 3.73843 0C5.02162 0 5.96551 0.589829 6.56785 1.14518C6.73556 1.29981 6.87949 1.45405 7 1.59627C7.12052 1.45405 7.26445 1.29981 7.43216 1.14518C8.0345 0.589829 8.97838 0 10.2616 0C12.3521 0 13.9786 1.61892 13.9996 3.52017L13.9996 3.52032C14.0394 7.22847 10.8309 9.79385 7.60574 11.8268C7.42711 11.9397 7.21605 12 7 12C6.78395 12 6.5729 11.9397 6.39426 11.8268C3.16881 9.79385 -0.0398038 7.22846 0.000373417 3.52027L0.000374444 3.52017ZM7.48093 2.72483C7.38948 2.89351 7.20345 2.99999 7 2.99999C6.79656 2.99999 6.61054 2.89352 6.51909 2.72485C6.51897 2.72464 6.51875 2.72424 6.51843 2.72366C6.51777 2.72247 6.51668 2.72053 6.51516 2.71786C6.51436 2.71644 6.51343 2.71481 6.51238 2.71299C6.50633 2.70246 6.49626 2.6853 6.48218 2.66246C6.45398 2.61671 6.40993 2.54858 6.3501 2.46553C6.22983 2.29861 6.04911 2.07608 5.80911 1.85481C5.32685 1.41016 4.63994 0.999997 3.73843 0.999997C2.27804 0.999997 1.0926 2.13977 1.07719 3.53033M7.48093 2.72483C7.48105 2.72461 7.48126 2.72422 7.48158 2.72366C7.48259 2.72185 7.4846 2.71825 7.48763 2.71299C7.49368 2.70246 7.50375 2.6853 7.51783 2.66246C7.54603 2.61671 7.59008 2.54858 7.64991 2.46553C7.77018 2.29861 7.9509 2.07608 8.19089 1.85481C8.67316 1.41016 9.36006 0.999997 10.2616 0.999997C11.722 0.999997 12.9074 2.13974 12.9228 3.53029C12.9564 6.65505 10.2539 8.94896 7.00047 10.9997L7 11L6.99951 10.9997C3.74577 8.94897 1.04339 6.6551 1.07719 3.53043" fill="white"/>
</svg>
